Coordinates
version=1
nRows=11
nColumns=36
inDegrees=yes

Units are S.I. units (second, meters, Newtons, ...)
If the header above contains a line with 'inDegrees', this indicates whether rotational values are in degrees (yes) or radians (no).

endheader
time	pelvis_tilt	pelvis_list	pelvis_rotation	pelvis_tx	pelvis_ty	pelvis_tz	hip_flexion_r	hip_adduction_r	hip_rotation_r	knee_angle_r	knee_angle_r_beta	ankle_angle_r	subtalar_angle_r	mtp_angle_r	hip_flexion_l	hip_adduction_l	hip_rotation_l	knee_angle_l	knee_angle_l_beta	ankle_angle_l	subtalar_angle_l	mtp_angle_l	lumbar_extension	lumbar_bending	lumbar_rotation	arm_flex_r	arm_add_r	arm_rot_r	elbow_flex_r	pro_sup_r	arm_flex_l	arm_add_l	arm_rot_l	elbow_flex_l	pro_sup_l
      0.00000000	      2.28291666	     -0.01768602	      0.18903201	     -1.04190641	      1.30918808	     -0.07145561	     -2.12159282	      0.66512832	     -6.22233014	      7.55778866	      0.13190830	      0.73178112	    -22.82420440	     -5.87571931	     -2.16534070	     -0.26448999	     -0.94915962	      7.77351418	      0.13567342	      2.97158686	    -14.40987661	     -5.87571931	    -12.45530598	      2.37133661	     -2.57952953	      9.49507305	     -8.18178458	     24.58864153	     37.37647689	     77.70693881	     14.31475901	     -7.97846274	     37.47009268	     39.91746665	     66.31355392
      0.00416670	      0.66591591	      0.33487952	      0.47227745	     -1.03936844	      1.30570382	     -0.07422634	      0.32594583	      0.22181999	     -5.91839664	      8.88418284	      0.15505824	      4.35161235	    -21.44409834	     -6.39092079	      0.79117502	      0.39722318	     -1.11536354	      9.08502388	      0.15856358	      4.36905245	    -13.21238360	     -6.39092079	    -10.25127225	      2.27477998	     -2.79958642	      8.54749722	     -7.59837735	     21.91087653	     36.29846964	     81.06019808	     14.52046569	     -6.96508637	     36.24450815	     37.75047194	     68.35243896
      0.00833330	      0.02077914	      1.05797450	      0.35483107	     -1.03727506	      1.30751903	     -0.07158851	      0.54872400	     -0.48178792	     -6.65442924	      8.04834636	      0.14047014	      4.76894135	    -20.65028409	     -6.55204409	      1.35954197	      0.96539803	     -1.84300118	      8.99433544	      0.15698077	      5.04513705	    -12.58109869	     -6.55204409	     -9.12954172	      1.14561596	     -2.71250604	      8.67077663	     -6.95795037	     22.34275954	     35.43152667	     80.69706116	     15.25464247	     -7.74768979	     38.19988414	     37.69429796	     68.48439768
      0.01250000	      0.41977100	      1.33007545	      0.48423063	     -1.03786484	      1.30890602	     -0.07184477	     -0.30891371	     -0.68748823	     -7.00124351	      7.27245463	      0.12692828	      5.23485736	    -19.80616847	     -6.65010582	      0.53580296	      1.26435145	     -1.82465252	      8.44704852	      0.14742881	      5.01489733	    -12.91459333	     -6.65010582	     -9.58906488	      0.70093274	     -2.50605992	      8.55650132	     -6.87125060	     22.94338181	     36.05680133	     80.42991038	     16.26929555	     -8.55939449	     40.36279887	     38.36186543	     69.08114644
      0.01666670	      0.48588574	      1.45509945	      0.60979362	     -1.04017199	      1.30316534	     -0.07292429	     -0.65297215	     -0.65994537	     -6.70780853	      6.65200980	      0.11609947	      5.29752203	    -20.15704658	     -6.76680353	      0.39269923	      1.46514139	     -1.71416208	      8.16027207	      0.14242362	      4.90159039	    -13.88714910	     -6.76680353	     -9.77257290	      0.54280164	     -2.26538001	      8.42685296	     -7.13228962	     23.64760260	     37.60856740	     80.77059692	     17.36801132	     -9.08887860	     42.96031789	     39.04994762	     70.72752285
      0.02083330	      0.48738142	      1.45107172	      0.80366964	     -1.04388552	      1.30575018	     -0.07044231	     -0.79811671	     -0.49866998	     -6.47700339	      6.05081947	      0.10560672	      5.46212886	    -20.13283979	     -6.78022176	      0.56074406	      1.44513857	     -1.85664229	      8.11285226	      0.14159598	      4.66213350	    -14.56095271	     -6.78022176	    -10.01220438	      0.53398639	     -2.25622905	      8.68720049	     -7.29080306	     24.29620268	     38.81345197	     80.92076382	     18.03043755	     -9.42533836	     43.76924951	     39.79355841	     71.15784058
      0.02500000	      0.38138648	      1.44811082	      0.94257767	     -1.04154414	      1.30933546	     -0.06910103	     -0.75603542	     -0.35843354	     -6.27925154	      5.88007090	      0.10262660	      5.45617171	    -20.03439734	     -6.78131089	      0.72771404	      1.36905477	     -1.69030835	      8.09127858	      0.14121945	      4.49715219	    -14.45013560	     -6.78131089	    -10.01782777	      0.46297302	     -2.20511520	      8.99331902	     -7.07763481	     24.40561090	     39.05438548	     80.93675748	     18.42271279	     -9.36201233	     43.81568647	     39.94019473	     71.19977702
      0.02916670	      0.65358198	      1.43943152	      1.23115695	     -1.04256832	      1.31494983	     -0.06875462	     -1.40321812	     -0.18278131	     -6.06608409	      5.14065247	      0.08972131	      4.93531145	    -19.97936277	     -6.80360315	      0.51134506	      1.27326137	     -1.54000280	      8.09814431	      0.14133928	      3.64450517	    -15.10250681	     -6.80360315	    -10.75816931	      0.42729995	     -2.16436508	      9.04533448	     -7.76536884	     26.43620746	     41.16632802	     81.12117597	     19.30388256	     -9.85894428	     46.11816957	     40.96177740	     72.19691788
      0.03333330	      0.66655489	      1.42071985	      1.44138980	     -1.04118722	      1.30746899	     -0.06704613	     -1.58193413	     -0.00282892	     -5.75480089	      4.84354777	      0.08453586	      4.60413937	    -20.35089885	     -6.90144877	      0.57916200	      1.12944305	     -1.67722783	      8.19922384	      0.14310345	      3.17275494	    -15.53769516	     -6.90144877	    -10.83904783	      0.29249523	     -2.00928157	      9.10889038	     -7.93415549	     27.42327940	     42.22484228	     79.47571300	     20.17394988	    -10.05203317	     48.08952321	     41.09176371	     73.73027848
      0.03750000	      0.58603718	      1.40264338	      1.65053987	     -1.04206881	      1.31467375	     -0.06617982	     -1.61997925	      0.15247940	     -5.82664305	      4.63278558	      0.08085736	      4.45714216	    -20.20954457	     -6.90565748	      0.71875586	      0.99753447	     -1.92504277	      8.17554965	      0.14269026	      2.60310436	    -15.37569411	     -6.90565748	    -10.88330515	      0.16439088	     -2.18021214	      9.23686566	     -7.71774900	     27.57300276	     42.66826531	     79.47956060	     20.40142351	    -10.10615333	     48.18520418	     41.26264534	     73.80696010
      0.04166670	      0.60053282	      1.36172411	      1.83442933	     -1.04225440	      1.31604214	     -0.06722772	     -1.92354145	      0.29054861	     -5.66200124	      4.11996233	      0.07190691	      4.12177283	    -20.05110018	     -6.92922362	      0.67884446	      0.89439360	     -1.98146984	      7.94683065	      0.13869836	      2.12273430	    -15.23999615	     -6.92922362	    -11.03447098	      0.17289752	     -2.45591383	      9.33036808	     -7.67898401	     27.89765558	     43.76043441	     79.02095650	     20.58038322	    -10.31339347	     48.45221681	     41.90796309	     73.59868712
